# xmcd
#
# Track frame offsets:
#	150
#	12317
#	26487
#	39182
#	50873
#	63709
#	76389
#	87928
#	103428
#	116957
#	128710
#	143680
#	155444
#	165127
#	179074
#	192210
#	201954
#	215221
#	226828
#	245264
#	256624
#	269886
#	278877
#	287348
#
# Disc length: 3999 seconds
#
# Revision: 0
# Processed by: cddbd v1.5.2PL0 Copyright (c) Steve Scherf et al.
# Submitted via: audiograbber 1.83.01
#
DISCID=610f9d18
DTITLE=The Greatest Country Music Recordings Of All Time - Record 63 and 64
DYEAR=1900
DGENRE=
TTITLE0=Moe Bandy - That's What Makes The Jukebox Play
TTITLE1=Moe Bandy - Hank Williams, You Wrote My Life
TTITLE2=Joe Stampley - Red Wine And Blue Memories
TTITLE3=Moe and Joe - Just Good Ole Boys
TTITLE4=Mickey Gilley - I Overlooked An Orchid
TTITLE5=Gary Stewart - She's Achtin' Single (I'm Drinkin' Doubles)
TTITLE6=Vernon Oxford - Redneck
TTITLE7=Johnny Bush - Whiskey River
TTITLE8=John Anderson - Your Lyin' Blue Eyes
TTITLE9=John Conlee - Backside Of Thirty
TTITLE10=Joe Sun - Old Flames (Can't Hold A Candle To You)
TTITLE11=Porter Wagoner - Misery Loves Company
TTITLE12=Norma Jean - Don't Let That Doorknob Hit You
TTITLE13=Jerry Lee Lewis - Cold, Cold Heart
TTITLE14=Jery Lee Lewis and His Pumping Piano - You Win Again
TTITLE15=Red Steagall - Lone Star Beer And Bob Wills Music
TTITLE16=Mel Tillis - Heart Over Mind
TTITLE17=Gene Watson - Should I Go Home (Or Should I Go Crazy)
TTITLE18=Gene Watson - Farewell Party
TTITLE19=Jean Shepard - Many Happy Hangovers To You
TTITLE20=Freddy Fender - Wasted Days And Wasted Nights
TTITLE21=Buck Owens - Sam's Place
TTITLE22=Buck Owens - We're The Talk Of The Town
TTITLE23=Johnny Russell - Rednecks, White Socks And Blue Ribbon Beer
EXTD=
EXTT0=
EXTT1=
EXTT2=
EXTT3=
EXTT4=
EXTT5=
EXTT6=
EXTT7=
EXTT8=
EXTT9=
EXTT10=
EXTT11=
EXTT12=
EXTT13=
EXTT14=
EXTT15=
EXTT16=
EXTT17=
EXTT18=
EXTT19=
EXTT20=
EXTT21=
EXTT22=
EXTT23=
PLAYORDER=
